<svg width="292pt" height="130pt"
 viewBox="0.00 0.00 292.04 130.00" xmlns="http://www.w3.org/2000/svg" xmlns:xlink="http://www.w3.org/1999/xlink">
<g id="graph0" class="graph" transform="scale(1 1) rotate(0) translate(4 126)">
<title>%3</title>
<polygon fill="#ffffff" stroke="transparent" points="-4,4 -4,-126 288.0381,-126 288.0381,4 -4,4"/>
<!-- a.py (Module) -->
<g id="node1" class="node">
<title>a.py (Module)</title>
<path fill="none" stroke="#000000" stroke-dasharray="1,5" d="M84.1348,-36C84.1348,-36 11.955,-36 11.955,-36 5.955,-36 -.045,-30 -.045,-24 -.045,-24 -.045,-12 -.045,-12 -.045,-6 5.955,0 11.955,0 11.955,0 84.1348,0 84.1348,0 90.1348,0 96.1348,-6 96.1348,-12 96.1348,-12 96.1348,-24 96.1348,-24 96.1348,-30 90.1348,-36 84.1348,-36"/>
<text text-anchor="middle" x="48.0449" y="-13.8" font-family="Times,serif" font-size="14.00" fill="#000000">a.py (Module)</text>
</g>
<!-- main.py (Module) -->
<g id="node2" class="node">
<title>main.py (Module)</title>
<path fill="none" stroke="#000000" stroke-dasharray="1,5" d="M169.9141,-122C169.9141,-122 76.1757,-122 76.1757,-122 70.1757,-122 64.1757,-116 64.1757,-110 64.1757,-110 64.1757,-98 64.1757,-98 64.1757,-92 70.1757,-86 76.1757,-86 76.1757,-86 169.9141,-86 169.9141,-86 175.9141,-86 181.9141,-92 181.9141,-98 181.9141,-98 181.9141,-110 181.9141,-110 181.9141,-116 175.9141,-122 169.9141,-122"/>
<text text-anchor="middle" x="123.0449" y="-99.8" font-family="Times,serif" font-size="14.00" fill="#000000">main.py (Module)</text>
</g>
<!-- main.py (Module)&#45;&gt;a.py (Module) -->
<g id="edge1" class="edge">
<title>main.py (Module)&#45;&gt;a.py (Module)</title>
<path fill="none" stroke="#000000" d="M107.1394,-85.7616C96.4997,-73.5615 82.342,-57.3273 70.5516,-43.8076"/>
<polygon fill="#000000" stroke="#000000" points="73.1381,-41.4483 63.9276,-36.2121 67.8624,-46.0492 73.1381,-41.4483"/>
<text text-anchor="middle" x="111.4346" y="-56.8" font-family="Times,serif" font-size="14.00" fill="#000000">imports</text>
</g>
<!-- numpy (Unknown Module) -->
<g id="node3" class="node">
<title>numpy (Unknown Module)</title>
<path fill="none" stroke="#ff0000" stroke-dasharray="1,5" d="M272.0313,-36C272.0313,-36 126.0586,-36 126.0586,-36 120.0586,-36 114.0586,-30 114.0586,-24 114.0586,-24 114.0586,-12 114.0586,-12 114.0586,-6 120.0586,0 126.0586,0 126.0586,0 272.0313,0 272.0313,0 278.0313,0 284.0313,-6 284.0313,-12 284.0313,-12 284.0313,-24 284.0313,-24 284.0313,-30 278.0313,-36 272.0313,-36"/>
<text text-anchor="middle" x="199.0449" y="-13.8" font-family="Times,serif" font-size="14.00" fill="#ff0000">numpy (Unknown Module)</text>
</g>
<!-- main.py (Module)&#45;&gt;numpy (Unknown Module) -->
<g id="edge2" class="edge">
<title>main.py (Module)&#45;&gt;numpy (Unknown Module)</title>
<path fill="none" stroke="#000000" d="M139.1626,-85.7616C149.944,-73.5615 164.2905,-57.3273 176.2382,-43.8076"/>
<polygon fill="#000000" stroke="#000000" points="178.9512,-46.0231 182.9505,-36.2121 173.7058,-41.3877 178.9512,-46.0231"/>
<text text-anchor="middle" x="186.4346" y="-56.8" font-family="Times,serif" font-size="14.00" fill="#000000">imports</text>
</g>
</g>
</svg>